<mxfile host="Electron" agent="Mozilla/5.0 (Windows NT 10.0; Win64; x64) AppleWebKit/537.36 (KHTML, like Gecko) draw.io/24.7.17 Chrome/128.0.6613.36 Electron/32.0.1 Safari/537.36" version="24.7.17">
  <diagram name="Page-1" id="13e1069c-82ec-6db2-03f1-153e76fe0fe0">
    <mxGraphModel dx="1434" dy="836" grid="1" gridSize="10" guides="1" tooltips="1" connect="1" arrows="1" fold="1" page="1" pageScale="1" pageWidth="1100" pageHeight="850" background="none" math="0" shadow="0">
      <root>
        <mxCell id="0" />
        <mxCell id="1" parent="0" />
        <mxCell id="7baba1c4bc27f4b0-2" value=":Sistema" style="shape=umlLifeline;perimeter=lifelinePerimeter;whiteSpace=wrap;html=1;container=1;collapsible=0;recursiveResize=0;outlineConnect=0;rounded=1;shadow=0;comic=0;labelBackgroundColor=none;strokeWidth=1;fontFamily=Verdana;fontSize=12;align=center;" parent="1" vertex="1">
          <mxGeometry x="500" y="80" width="100" height="560" as="geometry" />
        </mxCell>
        <mxCell id="7baba1c4bc27f4b0-10" value="" style="html=1;points=[];perimeter=orthogonalPerimeter;rounded=0;shadow=0;comic=0;labelBackgroundColor=none;strokeWidth=1;fontFamily=Verdana;fontSize=12;align=center;" parent="7baba1c4bc27f4b0-2" vertex="1">
          <mxGeometry x="45" y="100" width="10" height="130" as="geometry" />
        </mxCell>
        <mxCell id="lXlqGU74NpMGphMOCJmV-7" value="salvaNovaCobranca &lt;br&gt;(UE: dadosCobranca)" style="html=1;verticalAlign=bottom;startArrow=oval;startFill=1;endArrow=block;startSize=8;curved=0;rounded=0;entryX=-0.1;entryY=0.486;entryDx=0;entryDy=0;entryPerimeter=0;" parent="7baba1c4bc27f4b0-2" edge="1">
          <mxGeometry x="-0.0667" y="2" width="60" relative="1" as="geometry">
            <mxPoint x="60" y="172" as="sourcePoint" />
            <mxPoint x="210" y="172.01999999999998" as="targetPoint" />
            <mxPoint as="offset" />
          </mxGeometry>
        </mxCell>
        <mxCell id="ta6xRI_JC_E2kf2AFrNl-5" value="" style="html=1;points=[];perimeter=orthogonalPerimeter;rounded=0;shadow=0;comic=0;labelBackgroundColor=none;strokeWidth=1;fontFamily=Verdana;fontSize=12;align=center;" vertex="1" parent="7baba1c4bc27f4b0-2">
          <mxGeometry x="45" y="280" width="10" height="170" as="geometry" />
        </mxCell>
        <mxCell id="ta6xRI_JC_E2kf2AFrNl-9" value="return" style="endArrow=open;endSize=12;dashed=1;html=1;rounded=0;" edge="1" parent="7baba1c4bc27f4b0-2">
          <mxGeometry x="0.0112" y="-5" width="160" relative="1" as="geometry">
            <mxPoint x="216" y="360" as="sourcePoint" />
            <mxPoint x="55" y="360" as="targetPoint" />
            <mxPoint as="offset" />
          </mxGeometry>
        </mxCell>
        <mxCell id="ta6xRI_JC_E2kf2AFrNl-11" value="salvaNovaParcela&lt;br&gt;(UC: dadosParcela)" style="html=1;verticalAlign=bottom;startArrow=oval;startFill=1;endArrow=block;startSize=8;curved=0;rounded=0;" edge="1" parent="7baba1c4bc27f4b0-2">
          <mxGeometry width="60" relative="1" as="geometry">
            <mxPoint x="50" y="407" as="sourcePoint" />
            <mxPoint x="215.5" y="407" as="targetPoint" />
          </mxGeometry>
        </mxCell>
        <mxCell id="7baba1c4bc27f4b0-3" value=":Banco de Dados" style="shape=umlLifeline;perimeter=lifelinePerimeter;whiteSpace=wrap;html=1;container=1;collapsible=0;recursiveResize=0;outlineConnect=0;rounded=1;shadow=0;comic=0;labelBackgroundColor=none;strokeWidth=1;fontFamily=Verdana;fontSize=12;align=center;" parent="1" vertex="1">
          <mxGeometry x="666" y="80" width="100" height="560" as="geometry" />
        </mxCell>
        <mxCell id="lXlqGU74NpMGphMOCJmV-3" value="" style="html=1;points=[];perimeter=orthogonalPerimeter;rounded=0;shadow=0;comic=0;labelBackgroundColor=none;strokeWidth=1;fontFamily=Verdana;fontSize=12;align=center;" parent="7baba1c4bc27f4b0-3" vertex="1">
          <mxGeometry x="45" y="140" width="10" height="70" as="geometry" />
        </mxCell>
        <mxCell id="lXlqGU74NpMGphMOCJmV-11" value="return" style="endArrow=open;endSize=12;dashed=1;html=1;rounded=0;" parent="7baba1c4bc27f4b0-3" edge="1">
          <mxGeometry x="0.0112" y="-5" width="160" relative="1" as="geometry">
            <mxPoint x="45" y="197" as="sourcePoint" />
            <mxPoint x="-116" y="197" as="targetPoint" />
            <mxPoint as="offset" />
          </mxGeometry>
        </mxCell>
        <mxCell id="7baba1c4bc27f4b0-8" value="&lt;font style=&quot;font-size: 10px;&quot;&gt;Usuário Engenharia(UE): Sistema Gestão&lt;/font&gt;" style="shape=umlLifeline;perimeter=lifelinePerimeter;whiteSpace=wrap;html=1;container=1;collapsible=0;recursiveResize=0;outlineConnect=0;rounded=1;shadow=0;comic=0;labelBackgroundColor=none;strokeWidth=1;fontFamily=Verdana;fontSize=12;align=center;" parent="1" vertex="1">
          <mxGeometry x="100" y="80" width="130" height="560" as="geometry" />
        </mxCell>
        <mxCell id="7baba1c4bc27f4b0-9" value="" style="html=1;points=[];perimeter=orthogonalPerimeter;rounded=0;shadow=0;comic=0;labelBackgroundColor=none;strokeWidth=1;fontFamily=Verdana;fontSize=12;align=center;" parent="7baba1c4bc27f4b0-8" vertex="1">
          <mxGeometry x="59" y="100" width="10" height="180" as="geometry" />
        </mxCell>
        <mxCell id="lXlqGU74NpMGphMOCJmV-6" value="salvaNovaCobranca (UE: dadosCobranca)" style="html=1;verticalAlign=bottom;startArrow=oval;startFill=1;endArrow=block;startSize=8;curved=0;rounded=0;" parent="7baba1c4bc27f4b0-8" target="7baba1c4bc27f4b0-2" edge="1">
          <mxGeometry x="0.0024" width="60" relative="1" as="geometry">
            <mxPoint x="70" y="156" as="sourcePoint" />
            <mxPoint x="279.5" y="156" as="targetPoint" />
            <mxPoint as="offset" />
          </mxGeometry>
        </mxCell>
        <mxCell id="7baba1c4bc27f4b0-11" value="&lt;font style=&quot;font-size: 10px;&quot;&gt;CadastrarContrato&lt;/font&gt;" style="html=1;verticalAlign=bottom;endArrow=block;entryX=0;entryY=0;labelBackgroundColor=none;fontFamily=Verdana;fontSize=12;edgeStyle=elbowEdgeStyle;elbow=vertical;" parent="1" source="7baba1c4bc27f4b0-9" target="7baba1c4bc27f4b0-10" edge="1">
          <mxGeometry relative="1" as="geometry">
            <mxPoint x="220" y="190" as="sourcePoint" />
            <mxPoint as="offset" />
          </mxGeometry>
        </mxCell>
        <mxCell id="ODrtkv4GZBq-IyceJjSy-1" value="&lt;font style=&quot;font-size: 10px;&quot;&gt;enterDadosCobranca&lt;/font&gt;" style="html=1;verticalAlign=bottom;endArrow=block;labelBackgroundColor=none;fontFamily=Verdana;fontSize=12;edgeStyle=elbowEdgeStyle;elbow=vertical;" parent="1" edge="1" target="7baba1c4bc27f4b0-2">
          <mxGeometry relative="1" as="geometry">
            <mxPoint x="164.5" y="211" as="sourcePoint" />
            <mxPoint x="380" y="210.94000000000005" as="targetPoint" />
            <mxPoint as="offset" />
          </mxGeometry>
        </mxCell>
        <mxCell id="ODrtkv4GZBq-IyceJjSy-11" value="&lt;font style=&quot;font-size: 15px;&quot;&gt;Diagrama de sequência - Caso de Uso 04 - Contrato Desempenho&lt;/font&gt;" style="text;strokeColor=none;fillColor=none;html=1;fontSize=24;fontStyle=1;verticalAlign=middle;align=center;" parent="1" vertex="1">
          <mxGeometry x="20" width="500" height="40" as="geometry" />
        </mxCell>
        <mxCell id="lXlqGU74NpMGphMOCJmV-12" value="return" style="endArrow=open;endSize=12;dashed=1;html=1;rounded=0;" parent="1" edge="1" source="7baba1c4bc27f4b0-2">
          <mxGeometry x="0.0112" y="-5" width="160" relative="1" as="geometry">
            <mxPoint x="375.5" y="291" as="sourcePoint" />
            <mxPoint x="164.5" y="291" as="targetPoint" />
            <mxPoint as="offset" />
          </mxGeometry>
        </mxCell>
        <mxCell id="lXlqGU74NpMGphMOCJmV-13" value=":SistemaEmail" style="shape=umlLifeline;perimeter=lifelinePerimeter;whiteSpace=wrap;html=1;container=1;collapsible=0;recursiveResize=0;outlineConnect=0;rounded=1;shadow=0;comic=0;labelBackgroundColor=none;strokeWidth=1;fontFamily=Verdana;fontSize=12;align=center;" parent="1" vertex="1">
          <mxGeometry x="880" y="80" width="100" height="560" as="geometry" />
        </mxCell>
        <mxCell id="lXlqGU74NpMGphMOCJmV-14" value="" style="html=1;points=[];perimeter=orthogonalPerimeter;rounded=0;shadow=0;comic=0;labelBackgroundColor=none;strokeWidth=1;fontFamily=Verdana;fontSize=12;align=center;" parent="lXlqGU74NpMGphMOCJmV-13" vertex="1">
          <mxGeometry x="45" y="221" width="10" height="50" as="geometry" />
        </mxCell>
        <mxCell id="lXlqGU74NpMGphMOCJmV-17" value="&lt;font style=&quot;font-size: 10px;&quot;&gt;enviaEmailNotificacao&lt;/font&gt;" style="html=1;verticalAlign=bottom;endArrow=block;labelBackgroundColor=none;fontFamily=Verdana;fontSize=12;edgeStyle=elbowEdgeStyle;elbow=vertical;" parent="1" target="lXlqGU74NpMGphMOCJmV-13" edge="1">
          <mxGeometry relative="1" as="geometry">
            <mxPoint x="165" y="330" as="sourcePoint" />
            <mxPoint x="819.5" y="330" as="targetPoint" />
            <mxPoint as="offset" />
            <Array as="points">
              <mxPoint x="440" y="330" />
              <mxPoint x="334.5" y="394" />
            </Array>
          </mxGeometry>
        </mxCell>
        <mxCell id="ta6xRI_JC_E2kf2AFrNl-1" value="&lt;font style=&quot;font-size: 11px;&quot;&gt;Usuario Cobranca&lt;br&gt;UC&lt;/font&gt;" style="shape=umlLifeline;perimeter=lifelinePerimeter;whiteSpace=wrap;html=1;container=1;collapsible=0;recursiveResize=0;outlineConnect=0;rounded=1;shadow=0;comic=0;labelBackgroundColor=none;strokeWidth=1;fontFamily=Verdana;fontSize=12;align=center;" vertex="1" parent="1">
          <mxGeometry x="310" y="80" width="100" height="560" as="geometry" />
        </mxCell>
        <mxCell id="ta6xRI_JC_E2kf2AFrNl-7" value="" style="html=1;points=[];perimeter=orthogonalPerimeter;rounded=0;shadow=0;comic=0;labelBackgroundColor=none;strokeWidth=1;fontFamily=Verdana;fontSize=12;align=center;" vertex="1" parent="ta6xRI_JC_E2kf2AFrNl-1">
          <mxGeometry x="45" y="295" width="10" height="165" as="geometry" />
        </mxCell>
        <mxCell id="ta6xRI_JC_E2kf2AFrNl-10" value="geraNovaParcela&lt;br&gt;(UC: dadosParcela)" style="html=1;verticalAlign=bottom;startArrow=oval;startFill=1;endArrow=block;startSize=8;curved=0;rounded=0;" edge="1" parent="ta6xRI_JC_E2kf2AFrNl-1">
          <mxGeometry width="60" relative="1" as="geometry">
            <mxPoint x="58" y="380" as="sourcePoint" />
            <mxPoint x="240" y="380" as="targetPoint" />
          </mxGeometry>
        </mxCell>
        <mxCell id="ta6xRI_JC_E2kf2AFrNl-6" value="atualizaParcelaPaga&lt;br&gt;(UC: dataPagamento)" style="html=1;verticalAlign=bottom;startArrow=oval;startFill=1;endArrow=block;startSize=8;curved=0;rounded=0;entryX=0.2;entryY=0.315;entryDx=0;entryDy=0;entryPerimeter=0;" edge="1" parent="1" source="ta6xRI_JC_E2kf2AFrNl-1" target="ta6xRI_JC_E2kf2AFrNl-5">
          <mxGeometry width="60" relative="1" as="geometry">
            <mxPoint x="440" y="400" as="sourcePoint" />
            <mxPoint x="500" y="400" as="targetPoint" />
          </mxGeometry>
        </mxCell>
        <mxCell id="ta6xRI_JC_E2kf2AFrNl-8" value="atualizaParcelaPaga&lt;br&gt;(UC: dataPagamento)" style="html=1;verticalAlign=bottom;startArrow=oval;startFill=1;endArrow=block;startSize=8;curved=0;rounded=0;" edge="1" parent="1">
          <mxGeometry width="60" relative="1" as="geometry">
            <mxPoint x="550" y="420" as="sourcePoint" />
            <mxPoint x="720" y="420" as="targetPoint" />
          </mxGeometry>
        </mxCell>
        <mxCell id="ta6xRI_JC_E2kf2AFrNl-12" value="return" style="endArrow=open;endSize=12;dashed=1;html=1;rounded=0;" edge="1" parent="1" target="ta6xRI_JC_E2kf2AFrNl-1">
          <mxGeometry x="0.0112" y="-5" width="160" relative="1" as="geometry">
            <mxPoint x="541" y="520" as="sourcePoint" />
            <mxPoint x="380" y="520" as="targetPoint" />
            <mxPoint as="offset" />
          </mxGeometry>
        </mxCell>
      </root>
    </mxGraphModel>
  </diagram>
</mxfile>
